# xmcd
#
# Track frame offsets:
#	150
#	13687
#	29512
#	41270
#	58370
#
# Disc length: 1090 seconds
#
# Revision: 1
# Processed by: cddbd v1.5.2PL0 Copyright (c) Steve Scherf et al.
# Submitted via: audiograbber 1.83.01
#
DISCID=3c044005
DTITLE=Sin Galore - Sin Galore
DYEAR=1900
DGENRE=
TTITLE0=that ain't nothing
TTITLE1=boom boom my love
TTITLE2=schoolboy
TTITLE3=something's been happening
TTITLE4=hear them walking
EXTD=
EXTT0=
EXTT1=
EXTT2=
EXTT3=
EXTT4=
PLAYORDER=
